<svg width="25" height="25" viewBox="0 0 25 25" fill="none" xmlns="http://www.w3.org/2000/svg">
<path d="M7.81266 3.64587C4.65768 3.64587 2.0835 6.22006 2.0835 9.37504C2.0835 11.5085 3.69164 13.5172 5.65202 15.5772C7.61239 17.6373 10.0254 19.7237 11.9478 21.6462C12.0943 21.7926 12.293 21.8749 12.5002 21.8749C12.7073 21.8749 12.906 21.7926 13.0525 21.6462C14.975 19.7237 17.3879 17.6373 19.3483 15.5772C21.3087 13.5172 22.9168 11.5085 22.9168 9.37504C22.9168 6.22006 20.3426 3.64587 17.1877 3.64587C15.377 3.64587 13.8006 4.618 12.5002 6.26937C11.1997 4.618 9.62331 3.64587 7.81266 3.64587ZM7.81266 5.20837C9.33796 5.20837 10.6076 6.02004 11.84 7.9692C11.9104 8.08053 12.0079 8.17224 12.1233 8.23579C12.2388 8.29933 12.3684 8.33266 12.5002 8.33266C12.6319 8.33266 12.7616 8.29933 12.877 8.23579C12.9924 8.17224 13.0899 8.08053 13.1604 7.9692C14.3927 6.02004 15.6624 5.20837 17.1877 5.20837C19.4983 5.20837 21.3543 7.06439 21.3543 9.37504C21.3543 10.627 20.0979 12.5246 18.2171 14.501C16.502 16.3033 14.3701 18.1862 12.5002 20.0094C10.6302 18.1862 8.49829 16.3033 6.7832 14.501C4.90243 12.5246 3.646 10.627 3.646 9.37504C3.646 7.06439 5.50202 5.20837 7.81266 5.20837Z" fill="#7F7F7F"/>
</svg>
